<svg width="1280" height="1094" viewBox="0 0 1280 1094" fill="none" xmlns="http://www.w3.org/2000/svg">
<path d="M0.8 265.6C1.33333 411.733 2.13333 657.733 2.66667 812.267L3.46667 1093.33H641.333H1279.07V964.667V836L834.133 835.733L389.067 835.333L381.6 831.867C377.2 829.733 372.8 826.533 370.933 823.867L367.733 819.333L367.333 409.6L367.067 0H183.467H0L0.8 265.6Z" fill="white"/>
<path d="M422 114.267L422.4 227.333L572 227.733L721.467 228L723.067 218.4C727.067 193.467 736.4 166.267 745.333 153.2C755.867 137.867 772.4 127.067 792.533 122.133C815.6 116.533 855.6 116.133 880.4 121.333C905.733 126.533 923.333 138.8 929.867 155.733C932.267 162.133 932.8 166.933 933.467 186.8C933.867 202.933 933.6 210.533 932.667 211.2C931.867 211.733 895.6 216.533 852.133 222C747.6 235.2 701.067 243.333 643.067 258.133C561.6 278.933 493.867 307.333 435.467 345.2L421.733 354V569.6V785.333H850.4H1279.07V393.333V1.33333H850.4H421.733L422 114.267ZM932.933 478.267C932.667 481.067 932.133 489.333 931.867 496.667C928.267 569.733 888.533 627.2 829.067 645.2C790.8 656.933 737.467 655.333 708.533 641.733C700.267 637.733 689.6 628.533 685.067 621.333C680.4 613.867 677.467 603.2 677.333 592.8C677.2 584.533 677.6 582.4 680.933 576.8C698.933 546 770.4 514.8 900.267 481.333C916.8 477.067 931.067 473.467 932 473.467C932.933 473.333 933.333 475.067 932.933 478.267Z" fill="#D9A748"/>
</svg>
