<svg width="6667" height="1097" viewBox="0 0 6667 1097" fill="none" xmlns="http://www.w3.org/2000/svg">
<g clip-path="url(#clip0_3_8)">
<path d="M4525.33 1.46655C4428.27 7.73315 4328.53 37.4666 4242.4 85.7333L4229.33 93.0666V49.8666V6.66663H3973.33H3717.33V547.333V1088H3973.33H4229.2L4229.73 857.6C4230 644.533 4230.27 626.267 4232.4 613.6C4240 569.867 4252.13 542.133 4273.33 521.333C4294.53 500.4 4321.33 490 4363.47 486.4C4396.8 483.733 4425.33 488 4448.67 499.333C4482.13 515.6 4500.67 545.2 4508.67 595.333C4512.93 622.133 4513.33 645.733 4513.33 866.267V1088H4690.67H4868L4867.73 587.733L4867.33 87.3333L4852.67 78.4C4789.33 39.4667 4717.73 14.5332 4641.73 4.79993C4606.93 0.266602 4562.93 -0.933472 4525.33 1.46655Z" fill="white"/>
<path d="M0.399853 269.6C0.933187 415.733 1.73319 661.733 2.26652 816.267L3.06652 1097.33H640.933H1278.67V968.667V840L833.733 839.733L388.667 839.333L381.2 835.867C376.8 833.733 372.4 830.533 370.533 827.867L367.333 823.333L366.933 413.6L366.667 3.99988H183.067H-0.400146L0.399853 269.6Z" fill="white"/>
<path d="M421.6 118.267L422 231.333L571.6 231.733L721.067 232L722.667 222.4C726.667 197.467 736 170.267 744.933 157.2C755.467 141.867 772 131.067 792.133 126.133C815.2 120.533 855.2 120.133 880 125.333C905.333 130.533 922.933 142.8 929.467 159.733C931.867 166.133 932.4 170.933 933.067 190.8C933.467 206.933 933.2 214.533 932.267 215.2C931.467 215.733 895.2 220.533 851.733 226C747.2 239.2 700.667 247.333 642.667 262.133C561.2 282.933 493.467 311.333 435.067 349.2L421.333 358V573.6V789.333H850H1278.67V397.333V5.33319H850H421.333L421.6 118.267ZM932.533 482.267C932.267 485.067 931.733 493.333 931.467 500.667C927.867 573.733 888.133 631.2 828.667 649.2C790.4 660.933 737.067 659.333 708.133 645.733C699.867 641.733 689.2 632.533 684.667 625.333C680 617.867 677.067 607.2 676.933 596.8C676.8 588.533 677.2 586.4 680.533 580.8C698.533 550 770 518.8 899.867 485.333C916.4 481.067 930.667 477.467 931.6 477.467C932.533 477.333 932.933 479.067 932.533 482.267Z" fill="white"/>
<path d="M2508.67 12.2665C2508.27 13.1998 2508.13 255.467 2508.27 550.667L2508.67 1087.33H3094H3679.33V549.333V11.3333L3094.27 10.9332C2626.93 10.6665 2509.07 10.9332 2508.67 12.2665ZM3166 200.667C3225.6 210.133 3269.87 231.867 3305.6 268.933C3347.6 312.8 3371.6 368.267 3382.13 446.8C3384.93 467.6 3386.13 534.667 3384.13 561.733C3378.53 638.667 3361.47 699.2 3331.87 747.6C3294.67 808.267 3236.4 844.933 3160.67 855.2C3111.07 861.867 3057.2 857.6 3014.13 843.467C2931.47 816.267 2875.6 750.667 2850.67 652C2833.33 583.067 2832 483.467 2847.33 408.8C2872.93 284.8 2947.07 213.467 3064 200.133C3070.93 199.333 3078.8 198.4 3081.33 198.133C3093.07 196.8 3153.33 198.533 3166 200.667Z" fill="white"/>
<path d="M5883.33 11.4668C5758.67 16.1334 5660.93 41.0668 5561.33 93.6002C5528.8 110.8 5479.33 139.867 5457.07 154.933L5449.33 160.133V627.333V1094.67H5618.67C5711.87 1094.67 5788 1094.4 5788 1094C5788 1093.6 5785.73 1090.13 5782.93 1086.27C5751.47 1043.47 5728.67 985.467 5717.33 919.6C5711.33 884.667 5710.13 865.6 5710 814C5710 762.133 5710.93 748.8 5716.67 712.667C5734.67 600.4 5788 512.133 5859.33 476.267C5884.93 463.467 5909.07 457.6 5940.67 456.4C5992.8 454.667 6040.53 468.533 6078.13 496.4C6115.73 524.4 6152.27 579.867 6183.6 656.667C6186.93 664.667 6190.13 671.867 6190.67 672.533C6191.73 673.6 6259.2 638.133 6407.33 558.267C6544.27 484.533 6603.33 451.733 6605.73 447.733C6607.47 445.067 6598.4 421.467 6582.27 386.8C6505.73 222 6382.13 111.067 6212 54.6669C6144 32.1334 6069.6 18.4001 5987.33 13.4668C5963.33 12.0001 5901.6 10.8002 5883.33 11.4668Z" fill="white"/>
<path d="M6393.6 988.933C6356.13 1032.53 6312.4 1086.27 6313.6 1087.47C6314 1087.73 6393.33 1087.87 6490.13 1087.73L6665.87 1087.33L6640.67 1075.47C6540.8 1028.8 6413.33 970.667 6410.8 970.667C6410.13 970.667 6402.4 978.933 6393.6 988.933Z" fill="white"/>
<path d="M1718 6.80005C1576.8 16.5334 1472.67 53.0668 1333.07 141.733L1312 155.067V625.467V1096H1483.33H1654.53L1647.07 1085.73C1606.8 1029.47 1582.53 953.6 1575.87 862.933C1573.87 834.4 1574.93 763.067 1577.87 738.667C1587.07 661.867 1607.33 602.667 1642 550.667C1676.53 498.933 1717.73 469.333 1772.13 457.067C1784.4 454.4 1789.47 454 1816 454C1842 454 1848 454.4 1861.07 457.067C1924.4 469.867 1967.07 501.067 2006.13 563.067C2017.2 580.533 2041.2 628.533 2051.33 653.067C2057.47 668.267 2059.47 672 2061.2 671.333C2066.27 669.333 2310.4 538.4 2387.33 496.4C2432 472 2472.27 449.2 2476.53 446C2479.07 444.133 2478.8 443.2 2469.87 421.067C2459.47 395.2 2439.47 353.6 2426 329.867C2377.07 244.133 2311.87 173.6 2234 122.267C2136.13 57.7334 2021.87 21.6001 1875.33 8.53345C1847.07 6.13342 1744.8 4.93335 1718 6.80005Z" fill="white"/>
<path d="M2124.53 976.4C2123.07 978.267 2108.8 995.2 2092.67 1014.13C2058.4 1054.53 2026 1094.4 2026.93 1095.33C2027.33 1095.73 2110.13 1095.87 2211.07 1095.73L2394.67 1095.33L2366.27 1082.13C2249.33 1027.73 2137.33 976.534 2129.73 974.134C2127.73 973.467 2126.27 974.134 2124.53 976.4Z" fill="white"/>
<path fill-rule="evenodd" clip-rule="evenodd" d="M5414 0H4912V1088H5414V0ZM5205.21 817.905L5163 688L5120.79 817.905H4984.2L5094.71 898.19L5052.5 1028.1L5163 947.81L5273.5 1028.1L5231.29 898.19L5341.8 817.905H5205.21Z" fill="#F6AA1C"/>
</g>
<defs>
<clipPath id="clip0_3_8">
<rect width="6667" height="1097" fill="white"/>
</clipPath>
</defs>
</svg>
